<svg width="439" height="38" viewBox="0 0 439 38" fill="none" xmlns="http://www.w3.org/2000/svg">
<path d="M425.59 13.4118H427.825V11.1765H425.59V13.4118Z" fill="white"/>
<path d="M418.883 13.4118H425.589V11.1765H418.883V13.4118Z" fill="#B2B2B2"/>
<path d="M418.883 20.1179H427.824V13.412L418.883 13.4118V20.1179Z" fill="#8E8E8E"/>
<path d="M427.824 20.1179H439.001V11.1767L427.825 11.1765L427.824 20.1179Z" fill="#6F6F6F"/>
<path d="M418.883 11.1765L439.001 11.1767L439 0H418.883V11.1765Z" fill="#3E3E3E"/>
<path d="M401 20.1179H421.118V0.000230677H401V20.1179Z" fill="#2B2B2B"/>
<path d="M401 38.0002H439V17.8826H401V38.0002Z" fill="#1B1B1B"/>
<path d="M0 11.1767C0 12.2813 0.895431 13.1767 2 13.1767H18.1177C19.2222 13.1767 20.1176 12.2813 20.1176 11.1767V4.00026C20.1176 2.89569 19.2222 2.00026 18.1176 2.00026H2C0.895428 2.00026 0 2.89569 0 4.00026V11.1767Z" fill="#3E3E3E"/>
<path d="M6.70508 33.5293C6.70508 34.6338 7.60051 35.5293 8.70508 35.5293H24.8227C25.9273 35.5293 26.8227 34.6338 26.8227 33.5293V17.4116C26.8227 16.307 25.9273 15.4116 24.8227 15.4116H8.70508C7.60051 15.4116 6.70508 16.3071 6.70508 17.4116V33.5293Z" fill="#2B2B2B"/>
<path d="M33.5293 20.1177C33.5293 21.2222 34.4247 22.1176 35.5293 22.1176H69.5293C70.6339 22.1176 71.5293 21.2222 71.5293 20.1176V4C71.5293 2.89543 70.6339 2 69.5293 2H35.5293C34.4247 2 33.5293 2.89543 33.5293 4V20.1177Z" fill="#1B1B1B"/>
<path d="M35.7656 18.7646C35.7656 19.3819 36.266 19.8823 36.8833 19.8823C37.5005 19.8823 38.0009 19.3819 38.0009 18.7646C38.0009 18.1474 37.5005 17.647 36.8833 17.647C36.266 17.647 35.7656 18.1474 35.7656 18.7646Z" fill="white"/>
<path d="M33.5293 21.1176C33.5293 21.6699 33.977 22.1176 34.5293 22.1176H39.2352C39.7875 22.1176 40.2352 21.6699 40.2352 21.1176V20.8824C40.2352 20.3301 39.7875 19.8824 39.2352 19.8824H34.5293C33.977 19.8824 33.5293 20.3301 33.5293 20.8824V21.1176Z" fill="#B2B2B2"/>
<path d="M33.5293 30.0591C33.5293 30.6113 33.977 31.0591 34.5293 31.0591H41.4705C42.0228 31.0591 42.4705 30.6113 42.4705 30.0591V25.3532C42.4705 24.8009 42.0228 24.3532 41.4705 24.3532H34.5293C33.977 24.3532 33.5293 24.8009 33.5293 25.3532V30.0591Z" fill="#8E8E8E"/>
<path d="M22.3535 18.8823C22.3535 19.4346 22.8012 19.8823 23.3535 19.8823H32.53C33.0823 19.8823 33.53 19.4346 33.53 18.8823V11.9411C33.53 11.3888 33.0823 10.9411 32.53 10.9411H23.3535C22.8012 10.9411 22.3535 11.3888 22.3535 11.9411V18.8823Z" fill="#6F6F6F"/>
<path d="M131.598 34H126.52V27.125H108.668V34H103.59V19.9961C103.59 17.9518 103.941 16.0703 104.645 14.3516C105.348 12.6328 106.324 11.1549 107.574 9.91797C108.824 8.68099 110.302 7.71745 112.008 7.02734C113.714 6.33724 115.576 5.99219 117.594 5.99219H129.039C129.391 5.99219 129.723 6.05729 130.035 6.1875C130.348 6.31771 130.621 6.5 130.855 6.73438C131.09 6.96875 131.272 7.24219 131.402 7.55469C131.533 7.86719 131.598 8.19922 131.598 8.55078V34ZM108.668 22.0469H126.52V11.0703H117.594C117.438 11.0703 117.105 11.0964 116.598 11.1484C116.103 11.1875 115.523 11.2982 114.859 11.4805C114.208 11.6628 113.518 11.9427 112.789 12.3203C112.06 12.6979 111.389 13.2188 110.777 13.8828C110.165 14.5469 109.658 15.3802 109.254 16.3828C108.863 17.3724 108.668 18.5768 108.668 19.9961V22.0469Z" fill="#2B2B2B"/>
<path d="M159.188 31.4414C159.188 31.793 159.116 32.125 158.973 32.4375C158.842 32.737 158.66 33.0039 158.426 33.2383C158.204 33.4596 157.938 33.6354 157.625 33.7656C157.326 33.8958 157.007 33.9609 156.668 33.9609C156.316 33.9609 155.984 33.8958 155.672 33.7656C155.372 33.6354 155.105 33.4596 154.871 33.2383C154.65 33.0039 154.474 32.737 154.344 32.4375C154.214 32.125 154.148 31.793 154.148 31.4414C154.148 31.1029 154.214 30.7839 154.344 30.4844C154.474 30.1719 154.65 29.9049 154.871 29.6836C155.105 29.4492 155.372 29.2669 155.672 29.1367C155.984 28.9935 156.316 28.9219 156.668 28.9219C157.007 28.9219 157.326 28.9935 157.625 29.1367C157.938 29.2669 158.204 29.4492 158.426 29.6836C158.66 29.9049 158.842 30.1719 158.973 30.4844C159.116 30.7839 159.188 31.1029 159.188 31.4414Z" fill="#2B2B2B"/>
<path d="M186.836 34H181.758V5.99219H186.836V34Z" fill="#2B2B2B"/>
<path d="M214.445 31.4414C214.445 31.793 214.374 32.125 214.23 32.4375C214.1 32.737 213.918 33.0039 213.684 33.2383C213.462 33.4596 213.195 33.6354 212.883 33.7656C212.583 33.8958 212.264 33.9609 211.926 33.9609C211.574 33.9609 211.242 33.8958 210.93 33.7656C210.63 33.6354 210.363 33.4596 210.129 33.2383C209.908 33.0039 209.732 32.737 209.602 32.4375C209.471 32.125 209.406 31.793 209.406 31.4414C209.406 31.1029 209.471 30.7839 209.602 30.4844C209.732 30.1719 209.908 29.9049 210.129 29.6836C210.363 29.4492 210.63 29.2669 210.93 29.1367C211.242 28.9935 211.574 28.9219 211.926 28.9219C212.264 28.9219 212.583 28.9935 212.883 29.1367C213.195 29.2669 213.462 29.4492 213.684 29.6836C213.918 29.9049 214.1 30.1719 214.23 30.4844C214.374 30.7839 214.445 31.1029 214.445 31.4414Z" fill="#2B2B2B"/>
<path d="M262.055 34H243.734C243.266 34 242.758 33.9479 242.211 33.8438C241.677 33.7266 241.143 33.5508 240.609 33.3164C240.089 33.082 239.587 32.7826 239.105 32.418C238.624 32.0404 238.194 31.5911 237.816 31.0703C237.452 30.5365 237.159 29.9245 236.938 29.2344C236.716 28.5312 236.605 27.7435 236.605 26.8711V13.1211C236.605 12.6523 236.658 12.151 236.762 11.6172C236.879 11.0703 237.055 10.5365 237.289 10.0156C237.523 9.48177 237.829 8.97396 238.207 8.49219C238.585 8.01042 239.034 7.58724 239.555 7.22266C240.089 6.84505 240.701 6.54557 241.391 6.32422C242.081 6.10287 242.862 5.99219 243.734 5.99219H262.055V11.0703H243.734C243.07 11.0703 242.562 11.2461 242.211 11.5977C241.859 11.9492 241.684 12.4701 241.684 13.1602V26.8711C241.684 27.5221 241.859 28.0299 242.211 28.3945C242.576 28.7461 243.083 28.9219 243.734 28.9219H262.055V34Z" fill="#2B2B2B"/>
<path d="M288.531 31.4414C288.531 31.793 288.46 32.125 288.316 32.4375C288.186 32.737 288.004 33.0039 287.77 33.2383C287.548 33.4596 287.281 33.6354 286.969 33.7656C286.669 33.8958 286.35 33.9609 286.012 33.9609C285.66 33.9609 285.328 33.8958 285.016 33.7656C284.716 33.6354 284.449 33.4596 284.215 33.2383C283.993 33.0039 283.818 32.737 283.688 32.4375C283.557 32.125 283.492 31.793 283.492 31.4414C283.492 31.1029 283.557 30.7839 283.688 30.4844C283.818 30.1719 283.993 29.9049 284.215 29.6836C284.449 29.4492 284.716 29.2669 285.016 29.1367C285.328 28.9935 285.66 28.9219 286.012 28.9219C286.35 28.9219 286.669 28.9935 286.969 29.1367C287.281 29.2669 287.548 29.4492 287.77 29.6836C288.004 29.9049 288.186 30.1719 288.316 30.4844C288.46 30.7839 288.531 31.1029 288.531 31.4414Z" fill="#2B2B2B"/>
<path d="M343.66 34H338.543V17.3203L329.539 33.1602C329.318 33.5638 329.005 33.8698 328.602 34.0781C328.211 34.2865 327.788 34.3906 327.332 34.3906C326.889 34.3906 326.473 34.2865 326.082 34.0781C325.704 33.8698 325.405 33.5638 325.184 33.1602L316.141 17.3203V34H311.062V8.16016C311.062 7.57422 311.232 7.05339 311.57 6.59766C311.922 6.14193 312.378 5.83594 312.938 5.67969C313.211 5.61458 313.484 5.59505 313.758 5.62109C314.031 5.63412 314.292 5.69271 314.539 5.79688C314.799 5.88802 315.034 6.02474 315.242 6.20703C315.451 6.3763 315.626 6.58464 315.77 6.83203L327.332 26.9297L338.895 6.83203C339.194 6.33724 339.604 5.98568 340.125 5.77734C340.659 5.56901 341.212 5.53646 341.785 5.67969C342.332 5.83594 342.781 6.14193 343.133 6.59766C343.484 7.05339 343.66 7.57422 343.66 8.16016V34Z" fill="#2B2B2B"/>
<path d="M371.25 31.4414C371.25 31.793 371.178 32.125 371.035 32.4375C370.905 32.737 370.723 33.0039 370.488 33.2383C370.267 33.4596 370 33.6354 369.688 33.7656C369.388 33.8958 369.069 33.9609 368.73 33.9609C368.379 33.9609 368.047 33.8958 367.734 33.7656C367.435 33.6354 367.168 33.4596 366.934 33.2383C366.712 33.0039 366.536 32.737 366.406 32.4375C366.276 32.125 366.211 31.793 366.211 31.4414C366.211 31.1029 366.276 30.7839 366.406 30.4844C366.536 30.1719 366.712 29.9049 366.934 29.6836C367.168 29.4492 367.435 29.2669 367.734 29.1367C368.047 28.9935 368.379 28.9219 368.73 28.9219C369.069 28.9219 369.388 28.9935 369.688 29.1367C370 29.2669 370.267 29.4492 370.488 29.6836C370.723 29.9049 370.905 30.1719 371.035 30.4844C371.178 30.7839 371.25 31.1029 371.25 31.4414Z" fill="#2B2B2B"/>
</svg>
