<svg width="442" height="493" xmlns="http://www.w3.org/2000/svg" xmlns:xlink="http://www.w3.org/1999/xlink" xml:space="preserve" overflow="hidden"><defs><clipPath id="clip0"><rect x="1879" y="841" width="442" height="493"/></clipPath></defs><g clip-path="url(#clip0)" transform="translate(-1879 -841)"><path d="M1879 933.606C1879 906.209 1901.21 884 1928.61 884L2271.39 884C2298.79 884 2321 906.209 2321 933.606L2321 1284.39C2321 1311.79 2298.79 1334 2271.39 1334L1928.61 1334C1901.21 1334 1879 1311.79 1879 1284.39Z" fill="#FF0000" fill-rule="evenodd"/><path d="M1896 932.202C1896 914.417 1910.42 900 1928.2 900L2270.8 900C2288.58 900 2303 914.417 2303 932.202L2303 1284.8C2303 1302.58 2288.58 1317 2270.8 1317L1928.2 1317C1910.42 1317 1896 1302.58 1896 1284.8Z" fill="#FFFFFF" fill-rule="evenodd"/><path d="M1914 930.898C1914 921.565 1921.57 914 1930.9 914L2272.1 914C2281.43 914 2289 921.565 2289 930.898L2289 1287.1C2289 1296.43 2281.43 1304 2272.1 1304L1930.9 1304C1921.57 1304 1914 1296.43 1914 1287.1Z" fill="#FF0000" fill-rule="evenodd"/><text fill="#FFFFFF" font-family="HandelGothicEF,HandelGothicEF_MSFontService,sans-serif" font-weight="700" font-size="83" transform="matrix(1 0 0 1 1969.57 1235)">GARLE</text><text fill="#FFFFFF" font-family="HandelGothicEF,HandelGothicEF_MSFontService,sans-serif" font-weight="700" font-size="220" transform="matrix(1 0 0 1 2018.12 1115)">G</text></g></svg>