<svg width="1090" height="1224" xmlns="http://www.w3.org/2000/svg" xmlns:xlink="http://www.w3.org/1999/xlink" xml:space="preserve" overflow="hidden"><defs><clipPath id="clip0"><rect x="1660" y="454" width="1090" height="1224"/></clipPath></defs><g clip-path="url(#clip0)" transform="translate(-1660 -454)"><path d="M1660 710.67C1660 610.336 1741.34 529 1841.67 529L2568.33 529C2668.66 529 2750 610.336 2750 710.67L2750 1496.33C2750 1596.66 2668.66 1678 2568.33 1678L1841.67 1678C1741.34 1678 1660 1596.66 1660 1496.33Z" fill="#FF0000" fill-rule="evenodd"/><path d="M1693 737.996C1693 644.662 1768.66 569 1862 569L2537.96 569C2631.29 569 2706.96 644.662 2706.96 737.996L2706.96 1469C2706.96 1562.34 2631.29 1638 2537.96 1638L1862 1638C1768.66 1638 1693 1562.34 1693 1469Z" fill="#FFFFFF" fill-rule="evenodd"/><path d="M1725 761.335C1725 673.889 1795.89 603 1883.34 603L2516.66 603C2604.1 603 2674.99 673.889 2674.99 761.335L2674.99 1445.66C2674.99 1533.11 2604.1 1604 2516.66 1604L1883.34 1604C1795.89 1604 1725 1533.11 1725 1445.66Z" fill="#FF0000" fill-rule="evenodd"/><text fill="#FFFFFF" font-family="HandelGothicEF,HandelGothicEF_MSFontService,sans-serif" font-weight="700" font-size="550" transform="matrix(1 0 0 1 1995.33 1138)">G</text><text fill="#FFFFFF" font-family="HandelGothicEF,HandelGothicEF_MSFontService,sans-serif" font-weight="700" font-size="220" transform="matrix(1 0 0 1 1837.68 1430)">GARLE</text></g></svg>