<svg width="589" height="25" viewBox="0 0 589 25" fill="none" xmlns="http://www.w3.org/2000/svg">
<path d="M102.134 14.7252H88.2784V10.283H102.134V14.7252ZM104.108 24.6609H88.2784C87.6709 24.6609 87.0071 24.5535 86.287 24.3387C85.567 24.124 84.8976 23.7736 84.2788 23.2875C83.6712 22.7902 83.1593 22.1515 82.7431 21.3716C82.338 20.5804 82.1355 19.6139 82.1355 18.4723V2.56839C82.1355 2.26319 82.1918 1.97496 82.3043 1.70367C82.4168 1.43239 82.5687 1.19502 82.7599 0.99156C82.9624 0.788099 83.1987 0.629851 83.4687 0.516817C83.7387 0.403783 84.0313 0.347266 84.3463 0.347266H104.108V4.7556H86.5233V18.4723C86.5233 19.0488 86.6752 19.4896 86.979 19.7948C87.2827 20.1 87.7271 20.2526 88.3122 20.2526H104.108V24.6609Z" fill="black"/>
<path d="M176.62 24.6609H172.198V10.1812L164.418 23.9318C164.227 24.2822 163.957 24.5479 163.608 24.7287C163.271 24.9096 162.905 25 162.511 25C162.129 25 161.769 24.9096 161.431 24.7287C161.105 24.5479 160.846 24.2822 160.655 23.9318L152.841 10.1812V24.6609H148.453V2.22928C148.453 1.72063 148.6 1.26849 148.892 0.872874C149.196 0.477255 149.59 0.211625 150.073 0.075984C150.31 0.019467 150.546 0.00251187 150.782 0.0251187C151.019 0.0364221 151.244 0.0872874 151.457 0.177715C151.682 0.256839 151.885 0.375524 152.065 0.533772C152.245 0.680716 152.397 0.861571 152.521 1.07634L162.511 18.5231L172.502 1.07634C172.761 0.646806 173.115 0.341614 173.565 0.16076C174.026 -0.0200949 174.505 -0.0483535 175 0.075984C175.472 0.211625 175.86 0.477255 176.164 0.872874C176.468 1.26849 176.62 1.72063 176.62 2.22928V24.6609Z" fill="black"/>
<path d="M245.975 14.4878C245.975 15.9686 245.716 17.3306 245.199 18.574C244.693 19.8174 243.989 20.8912 243.089 21.7955C242.189 22.6885 241.12 23.3893 239.883 23.8979C238.645 24.4066 237.301 24.6609 235.85 24.6609H224.002C223.687 24.6609 223.395 24.6044 223.125 24.4913C222.855 24.3783 222.619 24.2257 222.416 24.0336C222.225 23.8301 222.073 23.5927 221.96 23.3214C221.848 23.0502 221.792 22.7563 221.792 22.4398V2.56839C221.792 2.26319 221.848 1.97496 221.96 1.70367C222.073 1.43239 222.225 1.19502 222.416 0.99156C222.619 0.788099 222.855 0.629851 223.125 0.516817C223.395 0.403783 223.687 0.347266 224.002 0.347266H235.85C237.301 0.347266 238.645 0.601593 239.883 1.11025C241.12 1.6189 242.189 2.32536 243.089 3.22964C243.989 4.1226 244.693 5.19643 245.199 6.45111C245.716 7.69448 245.975 9.05089 245.975 10.5203V14.4878ZM241.587 10.5203C241.587 9.66127 241.447 8.87569 241.166 8.16357C240.895 7.45146 240.507 6.84673 240.001 6.34938C239.495 5.84072 238.887 5.45075 238.178 5.17947C237.481 4.89689 236.705 4.7556 235.85 4.7556H226.18V20.2526H235.85C236.705 20.2526 237.481 20.1169 238.178 19.8456C238.887 19.5631 239.495 19.1731 240.001 18.6757C240.507 18.1671 240.895 17.5624 241.166 16.8615C241.447 16.1494 241.587 15.3582 241.587 14.4878V10.5203Z" fill="black"/>
<path d="M310.268 14.7252H296.413V10.283H310.268V14.7252ZM312.242 24.6609H296.413C295.805 24.6609 295.141 24.5535 294.421 24.3387C293.701 24.124 293.032 23.7736 292.413 23.2875C291.805 22.7902 291.294 22.1515 290.877 21.3716C290.472 20.5804 290.27 19.6139 290.27 18.4723V2.56839C290.27 2.26319 290.326 1.97496 290.438 1.70367C290.551 1.43239 290.703 1.19502 290.894 0.99156C291.097 0.788099 291.333 0.629851 291.603 0.516817C291.873 0.403783 292.165 0.347266 292.48 0.347266H312.242V4.7556H294.657V18.4723C294.657 19.0488 294.809 19.4896 295.113 19.7948C295.417 20.1 295.861 20.2526 296.446 20.2526H312.242V24.6609Z" fill="black"/>
<path d="M384.754 24.6609H380.332V10.1812L372.552 23.9318C372.361 24.2822 372.091 24.5479 371.742 24.7287C371.405 24.9096 371.039 25 370.645 25C370.263 25 369.903 24.9096 369.565 24.7287C369.239 24.5479 368.98 24.2822 368.789 23.9318L360.975 10.1812V24.6609H356.588V2.22928C356.588 1.72063 356.734 1.26849 357.026 0.872874C357.33 0.477255 357.724 0.211625 358.208 0.075984C358.444 0.019467 358.68 0.00251187 358.916 0.0251187C359.153 0.0364221 359.378 0.0872874 359.591 0.177715C359.816 0.256839 360.019 0.375524 360.199 0.533772C360.379 0.680716 360.531 0.861571 360.655 1.07634L370.645 18.5231L380.636 1.07634C380.895 0.646806 381.249 0.341614 381.699 0.16076C382.161 -0.0200949 382.639 -0.0483535 383.134 0.075984C383.606 0.211625 383.994 0.477255 384.298 0.872874C384.602 1.26849 384.754 1.72063 384.754 2.22928V24.6609Z" fill="black"/>
<path d="M449.857 14.7252H436.001V10.283H449.857V14.7252ZM451.831 24.6609H436.001C435.394 24.6609 434.73 24.5535 434.01 24.3387C433.29 24.124 432.62 23.7736 432.002 23.2875C431.394 22.7902 430.882 22.1515 430.466 21.3716C430.061 20.5804 429.858 19.6139 429.858 18.4723V2.56839C429.858 2.26319 429.915 1.97496 430.027 1.70367C430.14 1.43239 430.292 1.19502 430.483 0.99156C430.685 0.788099 430.922 0.629851 431.192 0.516817C431.462 0.403783 431.754 0.347266 432.069 0.347266H451.831V4.7556H434.246V18.4723C434.246 19.0488 434.398 19.4896 434.702 19.7948C435.006 20.1 435.45 20.2526 436.035 20.2526H451.831V24.6609Z" fill="black"/>
<path d="M507.23 9.02828L514.622 0.347266H520.613L510.2 12.538L520.545 24.6609H514.588L507.23 16.0477L499.906 24.6609H493.932L504.26 12.538L493.898 0.347266H499.838L507.23 9.02828Z" fill="black"/>
<path d="M580.359 8.7457H581.799V7.29886H580.359V8.7457Z" fill="white"/>
<path d="M576.039 8.7457H580.359V7.29886H576.039V8.7457Z" fill="#B2B2B2"/>
<path d="M576.039 13.0862H581.799V8.7457H576.039V13.0862Z" fill="#8E8E8E"/>
<path d="M581.799 13.0862H589V7.29886H581.799V13.0862Z" fill="#6F6F6F"/>
<path d="M576.039 7.29886H589V0.0646804H576.039V7.29886Z" fill="#3E3E3E"/>
<path d="M564.518 13.0862H577.479V0.0646804H564.518V13.0862Z" fill="#2B2B2B"/>
<path d="M564.518 24.6609H589V11.6394H564.518V24.6609Z" fill="#1B1B1B"/>
<path d="M0 7.29886C0 8.89699 1.28951 10.1925 2.8802 10.1925H10.0807C11.6714 10.1925 12.9609 8.89699 12.9609 7.29886V5.85203C12.9609 4.25389 11.6714 2.95835 10.0807 2.95835H2.8802C1.28951 2.95835 0 4.25389 0 5.85203V7.29886Z" fill="#3E3E3E"/>
<path d="M4.32029 21.7672C4.32029 23.3654 5.6098 24.6609 7.20049 24.6609H14.401C15.9917 24.6609 17.2812 23.3654 17.2812 21.7672V14.533C17.2812 12.9349 15.9917 11.6394 14.401 11.6394H7.20049C5.6098 11.6394 4.32029 12.9349 4.32029 14.533V21.7672Z" fill="#2B2B2B"/>
<path d="M21.6015 13.0862C21.6015 14.6843 22.891 15.9799 24.4817 15.9799H43.2029C44.7936 15.9799 46.0831 14.6843 46.0831 13.0862V5.85203C46.0831 4.2539 44.7936 2.95835 43.2029 2.95835H24.4817C22.891 2.95835 21.6015 4.25389 21.6015 5.85203V13.0862Z" fill="#1B1B1B"/>
<path d="M23.0416 13.8096C23.0416 14.2092 23.3639 14.533 23.7616 14.533C24.1593 14.533 24.4817 14.2092 24.4817 13.8096C24.4817 13.4101 24.1593 13.0862 23.7616 13.0862C23.3639 13.0862 23.0416 13.4101 23.0416 13.8096Z" fill="white"/>
<path d="M21.6015 15.2565C21.6015 15.656 21.9238 15.9799 22.3215 15.9799H25.2017C25.5994 15.9799 25.9218 15.656 25.9218 15.2565C25.9218 14.8569 25.5994 14.533 25.2017 14.533H22.3215C21.9238 14.533 21.6015 14.8569 21.6015 15.2565Z" fill="#B2B2B2"/>
<path d="M21.6015 20.3204C21.6015 21.1195 22.2462 21.7672 23.0416 21.7672H25.9218C26.7171 21.7672 27.3619 21.1195 27.3619 20.3204V18.8736C27.3619 18.0745 26.7171 17.4267 25.9218 17.4267H23.0416C22.2462 17.4267 21.6015 18.0745 21.6015 18.8736V20.3204Z" fill="#8E8E8E"/>
<path d="M14.401 13.0862C14.401 13.8853 15.0457 14.533 15.8411 14.533H20.1614C20.9567 14.533 21.6015 13.8853 21.6015 13.0862V10.1925C21.6015 9.39347 20.9567 8.7457 20.1614 8.7457H15.8411C15.0457 8.7457 14.401 9.39347 14.401 10.1925V13.0862Z" fill="#6F6F6F"/>
</svg>
