<svg width="393" height="445" viewBox="0 0 393 445" fill="none" xmlns="http://www.w3.org/2000/svg">
    <path
        d="M182.748 42.5637C126.748 54.5637 77.748 130.564 69.7481 156.564C61.7482 182.564 46.748 326.564 46.748 348.564C46.748 370.564 52.748 399.564 69.7481 407.564C86.7482 415.564 100.5 407.564 100.5 407.564C100.5 407.564 96.5 418.5 54.5 418.5C30.8366 418.5 7.74801 407.564 7.74801 354.564C7.74801 310.735 17.748 162.564 27.748 101.564C35.748 52.7637 17.748 33.8971 7.74801 30.5637C-1.25199 24.2304 -9.85199 12.9637 27.748 18.5637C63.5328 23.8934 70.7555 71.3114 69.9327 97.7159C71.666 91.0684 79.8148 77.2374 103.748 54.5637C141.748 18.5637 221.748 -14.4363 285.748 6.56374C349.748 27.5637 341.748 107.564 350.748 111.564C359.748 115.564 385.748 122.564 385.748 137.564C385.748 152.564 363.748 173.564 371.748 169.564C379.748 165.564 378.748 188.564 385.748 189.564C392.748 190.564 395.748 202.564 385.748 212.564C375.748 222.564 370.748 210.564 385.748 240.564C400.748 270.564 384.748 273.564 341.748 293.564C298.748 313.564 310 373 321.748 407.564C329.532 430.464 378.118 452.848 350.748 440.564C310.5 422.5 312.033 416 292.5 394C266.252 364.436 263.748 291.564 276.748 240.564C289.748 189.564 307.748 156.564 291.748 86.5637C278.948 30.5637 238.748 30.5637 182.748 42.5637Z"
        fill="url(#paint0_linear_157_87)" />
    <defs>
        <linearGradient id="paint0_linear_157_87" x1="75" y1="88" x2="267" y2="330"
            gradientUnits="userSpaceOnUse">
            <stop stopColor="#E6CC47" />
            <stop offset="0.557292" stopColor="#FFE600" />
            <stop offset="1" stopColor="#E3BA28" />
        </linearGradient>
    </defs>
</svg>